<svg id="Layer_1" data-name="Layer 1" xmlns="http://www.w3.org/2000/svg" viewBox="0 0 53.91 51.58"><title>app</title><path d="M401.57,258.19h-.14l3,18.37,14.39-11.71A25.51,25.51,0,0,0,401.57,258.19Z" transform="translate(-373.04 -258.19)" style="fill:#fc6363"/><path d="M376.19,280h20.72l-3.31-20.53A25.82,25.82,0,0,0,376.19,280Z" transform="translate(-373.04 -258.19)" style="fill:#fc6363"/><path d="M412.77,280H427a25.76,25.76,0,0,0-3.17-9Z" transform="translate(-373.04 -258.19)" style="fill:#fc6363"/><path d="M401.57,309.77h.15l-3.06-19-15.78,10.83A25.56,25.56,0,0,0,401.57,309.77Z" transform="translate(-373.04 -258.19)" style="fill:#fc6363"/><path d="M427,288H406.23l3.32,20.53A25.84,25.84,0,0,0,427,288Z" transform="translate(-373.04 -258.19)" style="fill:#fc6363"/><polyline points="2.99 28.6 0 34.28 5.65 37.26" style="fill:#fc6363"/><line x1="2.8" y1="33.28" x2="23.47" y2="27.98" style="fill:#fc6363"/></svg>