<svg id="Layer_1" data-name="Layer 1" xmlns="http://www.w3.org/2000/svg" viewBox="0 0 66.26 61.8"><title>camp</title><path d="M376.41,299.53v29.89h.12a4.9,4.9,0,0,0,4.85-4.2L385.12,299" transform="translate(-367.31 -269.08)" style="fill:#fc6363"/><path d="M376.53,330.88H375V299.53h2.92v28.16a3.47,3.47,0,0,0,2.07-2.68l3.74-26.25,2.88.41-3.74,26.26A6.38,6.38,0,0,1,376.53,330.88Z" transform="translate(-367.31 -269.08)" style="fill:#fc6363"/><circle cx="396.13" cy="292.34" r="6.14" transform="translate(-340.29 349.05) rotate(-77.86)" style="fill:#fc6363"/><path d="M396.13,299.93a7.6,7.6,0,1,1,7.6-7.59A7.6,7.6,0,0,1,396.13,299.93Zm0-12.27a4.68,4.68,0,1,0,4.68,4.68A4.69,4.69,0,0,0,396.13,287.66Z" transform="translate(-367.31 -269.08)" style="fill:#fc6363"/><path d="M392.79,279.25v26.18a6.08,6.08,0,0,0-6.08-6.08H375.78a7,7,0,0,1-7-7,7,7,0,0,1,7-7h10.93A6.08,6.08,0,0,0,392.79,279.25Z" transform="translate(-367.31 -269.08)" style="fill:#fc6363"/><path d="M394.25,305.43h-2.92a4.61,4.61,0,0,0-4.62-4.62H375.78a8.48,8.48,0,0,1-8.47-8.47,8.48,8.48,0,0,1,8.47-8.47h10.93a4.62,4.62,0,0,0,4.62-4.62h2.92Zm-18.47-18.64a5.51,5.51,0,0,0-3.92,1.63,5.45,5.45,0,0,0-1.63,3.92,5.56,5.56,0,0,0,5.55,5.55h10.93a7.49,7.49,0,0,1,4.62,1.58V285.2a7.51,7.51,0,0,1-4.62,1.59Z" transform="translate(-367.31 -269.08)" style="fill:#fc6363"/><rect x="11.33" y="16.25" width="2.92" height="13.64" style="fill:#fc6363"/><path d="M394.46,308.25h0a1.67,1.67,0,0,1-1.67-1.67V277.63a1.67,1.67,0,0,1,1.67-1.67h0a1.67,1.67,0,0,1,1.67,1.67v28.95A1.67,1.67,0,0,1,394.46,308.25Z" transform="translate(-367.31 -269.08)" style="fill:#fc6363"/><path d="M394.46,309.71a3.13,3.13,0,0,1-3.13-3.13V277.63a3.13,3.13,0,0,1,6.26,0v28.95A3.13,3.13,0,0,1,394.46,309.71Zm0-32.29a.22.22,0,0,0-.21.21v28.95c0,.23.42.23.42,0V277.63A.22.22,0,0,0,394.46,277.42Z" transform="translate(-367.31 -269.08)" style="fill:#fc6363"/><line x1="49.09" y1="5.54" x2="54.45" y2="1.46" style="fill:#fc6363"/><path d="M416.41,276.08a1.46,1.46,0,0,1-.89-2.62l5.36-4.08a1.46,1.46,0,0,1,1.77,2.32l-5.36,4.08A1.48,1.48,0,0,1,416.41,276.08Z" transform="translate(-367.31 -269.08)" style="fill:#fc6363"/><line x1="36.54" y1="15.1" x2="44.36" y2="9.14" style="fill:#fc6363"/><path d="M403.85,285.64A1.46,1.46,0,0,1,403,283l7.82-6a1.46,1.46,0,1,1,1.76,2.32l-7.81,6A1.49,1.49,0,0,1,403.85,285.64Z" transform="translate(-367.31 -269.08)" style="fill:#fc6363"/><line x1="44.14" y1="17.14" x2="38.14" y2="20.18" style="fill:#fc6363"/><path d="M405.45,290.72a1.43,1.43,0,0,1-1.3-.8,1.46,1.46,0,0,1,.64-2l6-3a1.46,1.46,0,1,1,1.32,2.6l-6,3.05A1.51,1.51,0,0,1,405.45,290.72Z" transform="translate(-367.31 -269.08)" style="fill:#fc6363"/><line x1="58.22" y1="10.01" x2="49.45" y2="14.45" style="fill:#fc6363"/><path d="M416.76,285a1.46,1.46,0,0,1-.66-2.76l8.77-4.44a1.46,1.46,0,1,1,1.32,2.6l-8.77,4.44A1.43,1.43,0,0,1,416.76,285Z" transform="translate(-367.31 -269.08)" style="fill:#fc6363"/><line x1="49.09" y1="40.45" x2="54.45" y2="44.53" style="fill:#fc6363"/><path d="M421.76,315.07a1.44,1.44,0,0,1-.88-.3l-5.36-4.08a1.46,1.46,0,1,1,1.77-2.32l5.36,4.08a1.46,1.46,0,0,1-.89,2.62Z" transform="translate(-367.31 -269.08)" style="fill:#fc6363"/><line x1="36.54" y1="30.89" x2="44.36" y2="36.84" style="fill:#fc6363"/><path d="M411.67,307.39a1.44,1.44,0,0,1-.88-.3l-7.82-6a1.45,1.45,0,0,1-.28-2,1.47,1.47,0,0,1,2.05-.28l7.81,6a1.46,1.46,0,0,1-.88,2.62Z" transform="translate(-367.31 -269.08)" style="fill:#fc6363"/><line x1="44.14" y1="28.85" x2="38.14" y2="25.8" style="fill:#fc6363"/><path d="M411.45,299.39a1.46,1.46,0,0,1-.66-.16l-6-3a1.46,1.46,0,0,1,1.31-2.6l6,3a1.46,1.46,0,0,1-.66,2.76Z" transform="translate(-367.31 -269.08)" style="fill:#fc6363"/><line x1="58.22" y1="35.98" x2="49.45" y2="31.54" style="fill:#fc6363"/><path d="M425.53,306.52a1.4,1.4,0,0,1-.66-.16l-8.77-4.44a1.46,1.46,0,1,1,1.32-2.6l8.77,4.44a1.46,1.46,0,0,1-.66,2.76Z" transform="translate(-367.31 -269.08)" style="fill:#fc6363"/><path d="M412.89,293.56h-3.62a1.46,1.46,0,0,1,0-2.91h3.62a1.46,1.46,0,1,1,0,2.91Z" transform="translate(-367.31 -269.08)" style="fill:#fc6363"/><path d="M424.39,293.56h-7.63a1.46,1.46,0,1,1,0-2.91h7.63a1.46,1.46,0,1,1,0,2.91Z" transform="translate(-367.31 -269.08)" style="fill:#fc6363"/><path d="M432.11,293.61H429a1.46,1.46,0,0,1,0-2.92h3.12a1.46,1.46,0,0,1,0,2.92Z" transform="translate(-367.31 -269.08)" style="fill:#fc6363"/></svg>