<svg id="Layer_1" data-name="Layer 1" xmlns="http://www.w3.org/2000/svg" viewBox="0 0 53.87 66.57"><title>marketing</title><rect x="1.44" y="43.76" width="7.46" height="21.37" style="fill:#fc6363"/><path d="M382,333.27h-7.45a1.43,1.43,0,0,1-1.44-1.44V310.46a1.43,1.43,0,0,1,1.44-1.44H382a1.43,1.43,0,0,1,1.44,1.44v21.37A1.43,1.43,0,0,1,382,333.27Zm-6-2.88h4.57V311.9H376Z" transform="translate(-373.08 -266.7)" style="fill:#fc6363"/><rect x="15.95" y="37.96" width="7.46" height="27.17" style="fill:#fc6363"/><path d="M396.48,333.27H389a1.43,1.43,0,0,1-1.44-1.44V304.66a1.44,1.44,0,0,1,1.44-1.44h7.45a1.45,1.45,0,0,1,1.45,1.44v27.17A1.44,1.44,0,0,1,396.48,333.27Zm-6-2.88H395V306.11h-4.57Z" transform="translate(-373.08 -266.7)" style="fill:#fc6363"/><rect x="30.46" y="31.8" width="7.46" height="33.33" style="fill:#fc6363"/><path d="M411,333.27h-7.45a1.43,1.43,0,0,1-1.44-1.44V298.5a1.44,1.44,0,0,1,1.44-1.45H411a1.45,1.45,0,0,1,1.45,1.45v33.33A1.44,1.44,0,0,1,411,333.27Zm-6-2.88h4.57V299.94H405Z" transform="translate(-373.08 -266.7)" style="fill:#fc6363"/><rect x="44.97" y="22.39" width="7.46" height="42.74" style="fill:#fc6363"/><path d="M425.5,333.27h-7.45a1.43,1.43,0,0,1-1.44-1.44V289.09a1.43,1.43,0,0,1,1.44-1.44h7.45a1.44,1.44,0,0,1,1.45,1.44v42.74A1.44,1.44,0,0,1,425.5,333.27Zm-6-2.88h4.57V290.53h-4.57Z" transform="translate(-373.08 -266.7)" style="fill:#fc6363"/><path d="M374.52,296.59a1.44,1.44,0,0,1,0-2.88c27.21,0,38.05-12.87,49.52-26.5a1.45,1.45,0,0,1,2-.17,1.43,1.43,0,0,1,.17,2C414.85,282.6,403.08,296.59,374.52,296.59Z" transform="translate(-373.08 -266.7)" style="fill:#fc6363"/><path d="M425.14,278.26a1.43,1.43,0,0,1-1.44-1.44v-7.24h-7.29a1.44,1.44,0,0,1,0-2.88h8.73a1.44,1.44,0,0,1,1.44,1.44v8.68A1.43,1.43,0,0,1,425.14,278.26Z" transform="translate(-373.08 -266.7)" style="fill:#fc6363"/></svg>