<svg id="Layer_1" data-name="Layer 1" xmlns="http://www.w3.org/2000/svg" viewBox="0 0 38.81 62.1"><title>money</title><path d="M418.46,295.15a19.41,19.41,0,0,1-38.81,0c0-10.72,8.69-27.91,19.41-27.91S418.46,284.43,418.46,295.15Z" transform="translate(-379.65 -252.9)" style="fill:#fc6363"/><path d="M409.7,266.33l2.08-10a2.61,2.61,0,0,0-3.13-3.26l-6.79,2.18a8.88,8.88,0,0,1-5.42,0l-7-2.21a2.61,2.61,0,0,0-3.12,3.26l2.08,10.06" transform="translate(-379.65 -252.9)" style="fill:#fc6363"/><path d="M408.61,273H389.5a3.35,3.35,0,0,1-3.34-3.35h0a3.35,3.35,0,0,1,3.34-3.34h19.11a3.36,3.36,0,0,1,3.35,3.34h0A3.36,3.36,0,0,1,408.61,273Z" transform="translate(-379.65 -252.9)" style="fill:#fc6363"/><text transform="translate(13.71 48.73)" style="font-size:22.977930068969727px;fill:#fff;font-family:Poppins-Medium, Poppins">$</text></svg>